#!OML:ASF E:\id_vita\Project 1\Capture day 1\Session 1\Female.ASF
:FULLY-SPECIFIED
:DEGREES
1194
root 29.1281 13.5214 -1.7237 -286.466 86.1018 -339.916
lowerback 1.12433 1.34704 -3.79579
upperback -2.04651 1.69478 -1.33885
thorax -2.80478 0.921403 0.687145
lowerneck -3.71724 -0.290263 -5.90364
upperneck -0.773751 -0.147609 3.44674
head 0.401838 -0.0314767 2.09322
rclavicle 2.46493e-014 4.63168e-014
rhumerus 11.8028 29.8446 -76.0999
rradius 28.8854
rwrist 20.7046
rhand -45.7021 -95.8673
rfingers 7.12502
rthumb -18.4592 66.7231
lclavicle 2.46493e-014 4.63168e-014
lhumerus 22.787 -34.8524 75.8857
lradius 27.3671
lwrist -30.697
lhand -58.5699 -99.57
lfingers 7.12502
lthumb -30.7894 1672.99
rfemur -17.7129 6.45777 21.7512
rtibia 26.2009
rfoot -8.92909 -0.9335
rtoes -5.67412
lfemur -103.025 -4.91672 -28.8775
ltibia 82.7196
lfoot -24.0059 8.60108
ltoes -3.80699
1195
root 29.2279 13.5207 -1.74067 -289.328 86.0173 -342.822
lowerback 0.987149 1.41683 -3.57541
upperback -2.14281 1.79716 -1.43452
thorax -2.82049 0.968966 0.464022
lowerneck -3.48399 -0.249038 -5.97645
upperneck -0.896529 -0.102505 3.55972
head 0.321661 -0.00878665 2.14337
rclavicle -1.07344e-014 -2.74323e-014
rhumerus 11.3664 30.0563 -76.2186
rradius 29.0502
rwrist 20.7019
rhand -45.5565 -95.7752
rfingers 7.12502
rthumb -18.3191 66.6178
lclavicle -1.07344e-014 -2.74323e-014
lhumerus 22.4696 -35.1192 75.98
lradius 27.3091
lwrist -30.4708
lhand -58.7455 -99.3762
lfingers 7.12502
lthumb -30.9568 1673.21
rfemur -17.4841 6.39913 21.7194
rtibia 26.1302
rfoot -7.97358 -0.386182
rtoes -5.72829
lfemur -102.536 -4.86045 -29.0349
ltibia 82.7116
lfoot -24.4598 9.51805
ltoes -4.94251
1196
root 29.3203 13.5218 -1.7541 -291.533 85.9192 -345.061
lowerback 0.883868 1.4503 -3.51467
upperback -2.20201 1.84718 -1.46245
thorax -2.82212 0.993531 0.401381
lowerneck -3.29074 -0.0911877 -5.60574
upperneck -0.933289 0.0854505 2.99418
head 0.265394 0.0799457 1.89211
rclavicle 2.26615e-014 -1.15295e-014
rhumerus 11.019 30.1527 -76.3462
rradius 29.3902
rwrist 20.6395
rhand -45.2525 -95.9154
rfingers 7.12502
rthumb -18.0266 66.7308
lclavicle 2.26615e-014 -1.15295e-014
lhumerus 22.0638 -35.1281 76.2133
lradius 27.263
lwrist -30.6347
lhand -59.1115 -100.372
lfingers 7.12502
lthumb -31.3056 1672.29
rfemur -17.2967 6.45866 21.6595
rtibia 26.0581
rfoot -7.0104 0.11698
rtoes -4.52138
lfemur -102.07 -4.78098 -29.1254
ltibia 82.6791
lfoot -24.9097 10.1194
ltoes -5.38075
1197
root 29.412 13.5278 -1.76835 -293.479 85.6503 -347.209
lowerback 0.642014 1.50623 -3.5662
upperback -2.27117 1.93118 -1.55726
thorax -2.75862 1.03675 0.335483
lowerneck -3.66512 -0.120376 -5.3619
upperneck -0.632895 0.0563985 2.68894
head 0.422934 0.0621602 1.75088
rclavicle 2.98177e-015 -1.31198e-014
rhumerus 10.8401 29.9351 -76.6093
rradius 29.292
rwrist 20.9271
rhand -45.4447 -95.7192
rfingers 7.12502
rthumb -18.2115 66.5518
lclavicle 2.98177e-015 -1.31198e-014
lhumerus 21.7647 -35.2834 76.2595
lradius 27.3614
lwrist -30.5501
lhand -58.2224 -100.9
lfingers 7.12502
lthumb -30.458 1671.6
rfemur -17.3196 6.4458 21.4409
rtibia 25.9066
rfoot -5.88359 0.639824
rtoes -2.44248
lfemur -101.736 -4.76177 -29.1283
ltibia 82.6491
lfoot -25.2558 10.7098
ltoes -5.51203
1198
root 29.4996 13.537 -1.78033 -297.829 85.687 -351.769
lowerback 0.373939 1.5713 -3.25074
upperback -2.3215 2.03669 -1.54005
thorax -2.65169 1.08257 0.181371
lowerneck -3.89591 -0.10205 -5.33203
upperneck -0.448005 0.0919462 2.54487
head 0.518029 0.0781454 1.70108
rclavicle -4.27387e-014 -3.47873e-014
rhumerus 10.8142 30.3245 -76.5825
rradius 29.1256
rwrist 20.4341
rhand -45.6326 -95.1988
rfingers 7.12502
rthumb -18.3922 66.0483
lclavicle -4.27387e-014 -3.47873e-014
lhumerus 21.5743 -35.4242 76.2526
lradius 27.4301
lwrist -30.2562
lhand -58.5724 -100.424
lfingers 7.12502
lthumb -30.7918 1672.14
rfemur -17.4203 6.46151 21.6381
rtibia 25.9324
rfoot -4.64156 1.14067
rtoes -0.643492
lfemur -101.69 -4.72975 -28.605
ltibia 82.7871
lfoot -25.5071 11.1594
ltoes -5.21023
1199
root 29.5968 13.5587 -1.7955 -296.413 85.3776 -349.977
lowerback 0.647679 1.59183 -3.4864
upperback -2.20083 2.04685 -1.60631
thorax -2.68824 1.0902 0.238253
lowerneck -3.96763 -0.0656675 -5.38645
upperneck -0.338781 0.147114 2.43595
head 0.561931 0.103922 1.67724
rclavicle 1.39149e-015 -5.36719e-015
rhumerus 10.7252 30.9137 -76.3815
rradius 29.2225
rwrist 19.7343
rhand -45.7517 -94.8926
rfingers 7.12502
rthumb -18.5068 65.753
lclavicle 1.39149e-015 -5.36719e-015
lhumerus 21.42 -35.6105 76.3488
lradius 27.42
lwrist -30.1011
lhand -58.8205 -99.1006
lfingers 7.12502
lthumb -31.0283 1673.5
rfemur -16.8577 6.41498 21.2881
rtibia 26.0103
rfoot -3.9349 1.36121
rtoes -0.14373
lfemur -100.906 -4.91053 -28.7313
ltibia 82.9412
lfoot -25.9525 11.6426
ltoes -4.83954
1200
root 29.668 13.5607 -1.81188 -298.694 85.09 -352.627
lowerback 0.363196 1.68034 -3.56144
upperback -2.42999 2.17481 -1.65057
thorax -2.76976 1.16092 0.234409
lowerneck -3.82336 0.00167926 -5.17956
upperneck -0.236385 0.221253 2.14031
head 0.564866 0.135926 1.54605
rclavicle 9.74045e-015 7.35503e-015
rhumerus 10.3283 31.1581 -76.5209
rradius 29.377
rwrist 19.5711
rhand -46.1534 -94.6438
rfingers 7.12502
rthumb -18.8933 65.5413
lclavicle 9.74045e-015 7.35503e-015
lhumerus 21.0487 -35.9371 76.4994
lradius 27.4242
lwrist -29.7403
lhand -58.6799 -99.5196
lfingers 7.12502
lthumb -30.8942 1673.06
rfemur -17.2702 6.44377 21.0874
rtibia 26.1856
rfoot -3.46251 1.71692
rtoes -0.211238
lfemur -100.998 -4.92139 -28.5114
ltibia 83.0764
lfoot -26.0669 12.1306
ltoes -4.80209
1201
root 29.7495 13.565 -1.82976 -296.185 84.8562 -349.807
lowerback 0.77962 1.6134 -3.74941
upperback -2.4453 2.05768 -1.72459
thorax -3.02132 1.10888 0.25271
lowerneck -3.72893 0.093297 -4.99257
upperneck -0.221219 0.333825 1.79883
head 0.548038 0.188631 1.40478
rclavicle -1.39149e-015 -4.39314e-014
rhumerus 10.0819 31.3242 -76.6782
rradius 29.431
rwrist 19.4872
rhand -45.9432 -93.6073
rfingers 7.12502
rthumb -18.6911 64.4853
lclavicle -1.39149e-015 -4.39314e-014
lhumerus 20.7327 -36.0489 76.6183
lradius 27.3718
lwrist -29.4182
lhand -58.6539 -100.407
lfingers 7.12502
lthumb -30.8695 1672.17
rfemur -16.9356 5.82953 20.8059
rtibia 26.439
rfoot -2.88089 2.20168
rtoes 0.593995
lfemur -100.092 -5.26131 -28.5582
ltibia 83.0745
lfoot -26.1289 12.5779
ltoes -5.02163
1202
root 29.8092 13.5627 -1.83766 -300.696 85.3148 -354.196
lowerback 0.965211 1.66157 -3.11458
upperback -2.45016 2.12885 -1.55487
thorax -3.11471 1.13074 0.0647621
lowerneck -3.95585 0.107976 -5.0479
upperneck -0.0324727 0.3676 1.7996
head 0.644481 0.203962 1.41759
rclavicle 1.11319e-014 3.04141e-014
rhumerus 9.9537 31.0391 -76.8404
rradius 29.2672
rwrist 19.7817
rhand -44.6746 -94.9291
rfingers 7.12502
rthumb -17.4705 65.6941
lclavicle 1.11319e-014 3.04141e-014
lhumerus 20.5643 -36.2809 76.6942
lradius 27.3032
lwrist -29.264
lhand -58.7812 -101.26
lfingers 7.12502
lthumb -30.9908 1671.34
rfemur -16.9283 5.69144 21.4846
rtibia 26.8692
rfoot -1.97837 2.49536
rtoes 1.90913
lfemur -99.9046 -5.29155 -27.5642
ltibia 83.2087
lfoot -26.006 12.5479
ltoes -4.87376
1203
root 29.8886 13.5875 -1.85106 -298.91 84.7436 -352.667
lowerback 0.745477 1.71648 -3.59038
upperback -2.54282 2.19863 -1.73863
thorax -3.10054 1.17781 0.143235
lowerneck -4.18218 0.132044 -5.06501
upperneck 0.212504 0.410089 1.89435
head 0.758686 0.223677 1.45467
rclavicle 9.74045e-015 4.96962e-014
rhumerus 9.78724 30.6186 -77.1037
rradius 29.047
rwrist 20.3493
rhand -44.4009 -95.4292
rfingers 7.12502
rthumb -17.2071 66.1711
lclavicle 9.74045e-015 4.96962e-014
lhumerus 20.5027 -36.6191 76.6582
lradius 27.2442
lwrist -28.9728
lhand -58.7948 -102.093
lfingers 7.12502
lthumb -31.0038 1670.51
rfemur -17.3813 5.84157 20.8135
rtibia 27.2551
rfoot -0.809145 2.65741
rtoes 2.37392
lfemur -99.7808 -5.44111 -27.6035
ltibia 83.1132
lfoot -26.0951 12.5078
ltoes -4.43391
1204
root 29.9613 13.6059 -1.85939 -298.776 84.5411 -352.499
lowerback 0.852227 1.70686 -3.79193
upperback -2.55523 2.17478 -1.75991
thorax -3.18035 1.17179 0.230337
lowerneck -4.32203 0.202129 -4.925
upperneck 0.341056 0.506929 1.70002
head 0.818787 0.269001 1.3714
rclavicle 3.26007e-014 -3.16068e-014
rhumerus 9.76311 31.0041 -77.0871
rradius 28.9453
rwrist 20.0664
rhand -44.7087 -95.6219
rfingers 7.12502
rthumb -17.5033 66.3899
lclavicle 3.26007e-014 -3.16068e-014
lhumerus 20.3272 -36.432 76.8441
lradius 27.1194
lwrist -29.24
lhand -58.5926 -101.95
lfingers 7.12502
lthumb -30.811 1670.61
rfemur -17.4881 5.7465 20.6349
rtibia 27.5912
rfoot 0.287736 2.96871
rtoes 2.81799
lfemur -99.4409 -5.57857 -27.3567
ltibia 83.1258
lfoot -26.1689 12.5377
ltoes -4.62409
1205
root 30.0271 13.6161 -1.86727 -299.886 84.4417 -353.585
lowerback 0.87951 1.71358 -3.83856
upperback -2.48801 2.18262 -1.7267
thorax -3.12967 1.17517 0.290847
lowerneck -4.55614 0.280013 -4.71318
upperneck 0.334033 0.621326 1.26538
head 0.851662 0.32282 1.19966
rclavicle 7.95139e-015 -3.49861e-014
rhumerus 9.96048 31.4262 -76.8717
rradius 28.9771
rwrist 19.6954
rhand -44.7576 -95.4403
rfingers 7.12502
rthumb -17.5503 66.2125
lclavicle 7.95139e-015 -3.49861e-014
lhumerus 20.2293 -36.2402 76.9527
lradius 27.0727
lwrist -29.4889
lhand -58.4402 -101.009
lfingers 7.12502
lthumb -30.6657 1671.53
rfemur -17.6592 5.66914 20.641
rtibia 28.0798
rfoot 1.07367 3.22485
rtoes 3.09852
lfemur -99.1606 -5.59635 -27.1218
ltibia 83.1516
lfoot -26.1806 12.5499
ltoes -4.76872
